<svg id="LOGOS" xmlns="http://www.w3.org/2000/svg" viewBox="0 0 297 132"><defs><style>.cls-1{fill:#00acff;fill-rule:evenodd;}.cls-2{fill:#0086d0;}</style></defs><path d="M117.55,38.71V33.06h-5.18v5.65h-2.64V25.13h2.64v5.69h5.18V25.13h2.64V38.71Zm12.32,0h-2.09l-.19-.66a5.82,5.82,0,0,1-3,.86c-1.87,0-2.66-1.22-2.66-2.91,0-2,.9-2.76,3-2.76h2.45v-1c0-1.08-.31-1.47-1.94-1.47a14.1,14.1,0,0,0-2.83.31l-.32-1.88a14,14,0,0,1,3.5-.46c3.21,0,4.15,1.09,4.15,3.54ZM127.31,35h-1.88c-.84,0-1.07.22-1.07,1s.23,1,1,1a4.14,4.14,0,0,0,1.92-.5Zm7.92,3.9a12.53,12.53,0,0,1-3.52-.56l.35-1.87a11.94,11.94,0,0,0,3,.42c1.13,0,1.3-.24,1.3-1,0-.6-.13-.9-1.78-1.28-2.49-.59-2.79-1.19-2.79-3.08s.9-2.84,3.82-2.84a14.07,14.07,0,0,1,3.06.34L138.45,31a18.71,18.71,0,0,0-2.8-.28c-1.11,0-1.3.24-1.3.85,0,.78.06.84,1.44,1.19,2.85.72,3.13,1.08,3.13,3.09S138.31,38.91,135.23,38.91Zm11.7-.2V31.87c0-.52-.23-.78-.82-.78a7.33,7.33,0,0,0-2.66.82v6.8H140.9V24.94l2.55.38v4.34a9.19,9.19,0,0,1,3.73-.95c1.7,0,2.31,1.15,2.31,2.9v7.1Zm4.71-11.19V25.13h2.55v2.39Zm0,11.19v-9.8h2.55v9.8Zm4.6-9.72c0-2.45,1.48-3.88,5-3.88a16.63,16.63,0,0,1,3.8.44l-.3,2.19a21.49,21.49,0,0,0-3.41-.34c-1.83,0-2.41.61-2.41,2v5.16c0,1.43.58,2,2.41,2a21.49,21.49,0,0,0,3.41-.34l.3,2.19a16.63,16.63,0,0,1-3.8.44c-3.48,0-5-1.43-5-3.88Zm14.4,9.92c-3.5,0-4.44-1.85-4.44-3.86V32.57c0-2,.94-3.86,4.44-3.86s4.45,1.85,4.45,3.86v2.48C175.09,37.06,174.14,38.91,170.64,38.91Zm0-8.11c-1.36,0-1.88.59-1.88,1.69v2.64c0,1.11.52,1.69,1.88,1.69s1.89-.58,1.89-1.69V32.49C172.53,31.39,172,30.8,170.64,30.8Zm11.65.16a21.23,21.23,0,0,0-2.71,1.43v6.32H177v-9.8h2.15l.17,1.09A11.74,11.74,0,0,1,182,28.71Zm10.22,4.49c0,2.18-1,3.46-3.38,3.46a14.65,14.65,0,0,1-2.72-.28v4l-2.56.38V28.91h2l.26.83a5.47,5.47,0,0,1,3.22-1c2.06,0,3.15,1.17,3.15,3.4Zm-6.1,1.11a11.85,11.85,0,0,0,2.26.26c.92,0,1.28-.42,1.28-1.31V32.05c0-.8-.31-1.25-1.26-1.25a3.69,3.69,0,0,0-2.28.89Z"/><polygon class="cls-1" points="30 37.82 55.57 52.59 55.57 107.06 30 92.29 30 37.82"/><path class="cls-2" d="M68.22,44.19l-27.79-16V39.3l18.9,10.91V83.56l8.89,5.11c5.51,3.17,10,1.27,10-4.23V60C78.23,54.47,73.73,47.37,68.22,44.19Z"/><path d="M109.73,48.6h15.73c9.31,0,12.76,3.81,12.76,10.89V65c0,7-3.75,10.83-13.13,10.83h-7.74V88.88h-7.62ZM125,55.32h-7.68V69.1H125c4.3,0,5.57-1.57,5.57-4.89V60.09C130.6,56.77,129.21,55.32,125,55.32Z"/><path d="M164,88.88h-6l-.54-2a16.15,16.15,0,0,1-8.77,2.6c-5.39,0-7.68-3.69-7.68-8.77,0-6,2.6-8.29,8.58-8.29h7.08V69.35c0-3.27-.91-4.42-5.62-4.42a40.74,40.74,0,0,0-8.17.91l-.91-5.63A38.8,38.8,0,0,1,152,58.82c9.26,0,12,3.27,12,10.65ZM156.6,77.75h-5.44c-2.42,0-3.09.67-3.09,2.91,0,2,.67,3,3,3a11.68,11.68,0,0,0,5.56-1.51Z"/><path d="M168.39,78.18V70.13c0-7.92,3.45-11.31,12.7-11.31a25.59,25.59,0,0,1,7.2,1.09l-.91,6a27,27,0,0,0-6.11-.79c-4.23,0-5.5,1.27-5.5,4.9v8.17c0,3.63,1.27,4.9,5.5,4.9a25.06,25.06,0,0,0,6.11-.79l.91,6.05a24.5,24.5,0,0,1-7.2,1.09C171.84,89.49,168.39,86.1,168.39,78.18Z"/><path d="M193,88.88V47.39l7.37-1V88.88Zm25-29.45L209.33,74l9,14.88h-8.11L201.35,74l8.41-14.57Z"/><path d="M233.34,83.44a31.06,31.06,0,0,0,9-1.39l1.15,5.56a31.56,31.56,0,0,1-10.82,1.88c-9.26,0-12.46-4.3-12.46-11.37V70.31c0-6.23,2.78-11.49,12.22-11.49S244,64.33,244,70.68V77H227.6v1.51C227.6,82.05,228.87,83.44,233.34,83.44ZM227.6,71H237V69.59c0-2.78-.85-4.72-4.47-4.72s-4.9,1.94-4.9,4.72Z"/><path d="M263.7,65.6a58.17,58.17,0,0,0-7.8,4.29v19h-7.38V59.43h6.23l.48,3.26A33.13,33.13,0,0,1,263,58.82Z"/></svg>