<svg id="LOGOS" xmlns="http://www.w3.org/2000/svg" viewBox="0 0 372.19 132"><defs><style>.cls-1{fill:#623ce4;}.cls-1,.cls-2{fill-rule:evenodd;}.cls-2{fill:#3c2aa8;}</style></defs><path d="M128.32,58.11H117.06V51.4h30.13v6.71H135.94V91.69h-7.62Z"/><path d="M155.15,86.24a30.82,30.82,0,0,0,9-1.39l1.15,5.57a31.64,31.64,0,0,1-10.83,1.87C145.22,92.29,142,88,142,80.92v-7.8c0-6.23,2.78-11.5,12.22-11.5s11.55,5.51,11.55,11.86v6.29H149.4v1.51C149.4,84.85,150.67,86.24,155.15,86.24Zm-5.75-12.4h9.37V72.39c0-2.78-.84-4.72-4.47-4.72s-4.9,1.94-4.9,4.72Z"/><path d="M185.51,68.4a58.17,58.17,0,0,0-7.8,4.29v19h-7.38V62.23h6.23l.48,3.26a33.73,33.73,0,0,1,7.75-3.87Z"/><path d="M203.54,68.4a58.9,58.9,0,0,0-7.81,4.29v19h-7.38V62.23h6.24l.48,3.26a33.44,33.44,0,0,1,7.74-3.87Z"/><path d="M228.22,91.69h-6.05l-.54-2a16.09,16.09,0,0,1-8.78,2.6c-5.38,0-7.68-3.69-7.68-8.77,0-6,2.6-8.29,8.59-8.29h7.08V72.15c0-3.27-.91-4.42-5.63-4.42a41.46,41.46,0,0,0-8.16.91L206.14,63a38.68,38.68,0,0,1,10.1-1.39c9.26,0,12,3.27,12,10.65Zm-7.38-11.13h-5.45c-2.42,0-3.08.66-3.08,2.9,0,2.06.66,3,3,3a11.58,11.58,0,0,0,5.57-1.52Z"/><path d="M250.9,55.51a21.77,21.77,0,0,0-4.23-.48c-2.9,0-3.33,1.27-3.33,3.51v3.69h7.5l-.42,5.87h-7.08V91.69H236V68.1h-4.72V62.23H236V58.11C236,52,238.81,49,245.34,49a23.16,23.16,0,0,1,6.35.85Z"/><path d="M265.3,92.29c-10.1,0-12.82-5.56-12.82-11.61V73.24c0-6,2.72-11.62,12.82-11.62s12.83,5.57,12.83,11.62v7.44C278.13,86.73,275.4,92.29,265.3,92.29Zm0-24.38c-3.93,0-5.44,1.76-5.44,5.09v7.92c0,3.33,1.51,5.08,5.44,5.08s5.44-1.75,5.44-5.08V73C270.74,69.67,269.23,67.91,265.3,67.91Z"/><path d="M297.12,68.4a58.17,58.17,0,0,0-7.8,4.29v19h-7.38V62.23h6.23l.48,3.26a33.44,33.44,0,0,1,7.74-3.87Z"/><path d="M317.38,91.69V71.12c0-1.57-.66-2.36-2.36-2.36s-5,1.09-7.68,2.48V91.69H300V62.23h5.63l.72,2.48a29.44,29.44,0,0,1,11.8-3.09c2.84,0,4.6,1.15,5.57,3.15a28.8,28.8,0,0,1,11.85-3.15c4.9,0,6.66,3.45,6.66,8.71V91.69h-7.38V71.12c0-1.57-.67-2.36-2.36-2.36a19.54,19.54,0,0,0-7.69,2.48V91.69Z"/><polygon class="cls-1" points="51.84 43.53 71.52 54.89 71.52 77.61 51.84 66.25 51.84 43.53"/><polygon class="cls-2" points="73.67 54.89 73.67 77.61 93.35 66.25 93.35 43.52 73.67 54.89"/><polygon class="cls-1" points="30 30.84 30 53.56 49.68 64.93 49.68 42.2 30 30.84"/><polygon class="cls-1" points="51.84 91.46 71.51 102.83 71.51 80.25 71.51 80.1 51.84 68.74 51.84 91.46"/><path d="M124.88,41.43V35.78H119.7v5.65h-2.64V27.85h2.64v5.7h5.18v-5.7h2.64V41.43Zm12.32,0h-2.09l-.19-.66a5.77,5.77,0,0,1-3,.86c-1.86,0-2.66-1.22-2.66-2.91,0-2,.9-2.76,3-2.76h2.46v-1c0-1.08-.32-1.46-2-1.46a14.94,14.94,0,0,0-2.83.3l-.32-1.87a13.51,13.51,0,0,1,3.5-.47c3.21,0,4.15,1.09,4.15,3.54Zm-2.55-3.7h-1.89c-.84,0-1.07.22-1.07,1s.23,1,1,1a4.22,4.22,0,0,0,1.93-.5Zm7.91,3.9a12.53,12.53,0,0,1-3.52-.56l.35-1.87a12,12,0,0,0,3,.42c1.14,0,1.3-.24,1.3-1s-.12-.91-1.78-1.29c-2.49-.58-2.79-1.19-2.79-3.08s.91-2.84,3.82-2.84a14.07,14.07,0,0,1,3.06.34l-.25,2a18.85,18.85,0,0,0-2.81-.29c-1.11,0-1.3.25-1.3.85,0,.78.06.85,1.45,1.19,2.85.72,3.12,1.08,3.12,3.1S145.64,41.63,142.56,41.63Zm11.7-.2V34.59c0-.52-.23-.78-.81-.78a7.27,7.27,0,0,0-2.66.82v6.8h-2.56V27.66l2.56.38v4.34a9.19,9.19,0,0,1,3.73-1c1.69,0,2.3,1.15,2.3,2.9v7.1ZM159,30.25v-2.4h2.56v2.4Zm0,11.18v-9.8h2.56v9.8Zm4.6-9.72c0-2.45,1.49-3.88,5-3.88a16.56,16.56,0,0,1,3.8.44l-.3,2.2a21.57,21.57,0,0,0-3.41-.35c-1.82,0-2.41.61-2.41,2v5.15c0,1.43.59,2,2.41,2A21.49,21.49,0,0,0,172,39l.3,2.19a16.56,16.56,0,0,1-3.8.44c-3.47,0-5-1.42-5-3.88ZM178,41.63c-3.5,0-4.45-1.85-4.45-3.86V35.3c0-2,.95-3.87,4.45-3.87s4.44,1.85,4.44,3.87v2.47C182.42,39.78,181.48,41.63,178,41.63Zm0-8.1c-1.37,0-1.89.58-1.89,1.69v2.63c0,1.11.52,1.69,1.89,1.69s1.88-.58,1.88-1.69V35.22C179.86,34.11,179.34,33.53,178,33.53Zm11.64.16a19.85,19.85,0,0,0-2.7,1.42v6.32h-2.56v-9.8h2.16l.16,1.09a11.83,11.83,0,0,1,2.69-1.29Zm10.22,4.48c0,2.18-1,3.46-3.37,3.46a14.76,14.76,0,0,1-2.73-.28v4l-2.56.38V31.63h2l.25.83a5.48,5.48,0,0,1,3.23-1c2.05,0,3.14,1.17,3.14,3.4Zm-6.1,1.11a11.85,11.85,0,0,0,2.26.26c.93,0,1.28-.42,1.28-1.31V34.77c0-.8-.31-1.24-1.25-1.24a3.73,3.73,0,0,0-2.29.88Z"/></svg>