<svg id="LOGOS" xmlns="http://www.w3.org/2000/svg" viewBox="0 0 328 132"><defs><style>.cls-1{fill:#0f4bd7;}.cls-2{fill:#1563ff;}</style></defs><path d="M124.9,41V35.35h-5.18V41h-2.64V27.42h2.64v5.69h5.18V27.42h2.64V41Zm12.32,0h-2.1l-.19-.66a5.77,5.77,0,0,1-3,.86c-1.86,0-2.66-1.23-2.66-2.92,0-2,.9-2.75,3-2.75h2.45v-1c0-1.09-.31-1.47-1.95-1.47a14.94,14.94,0,0,0-2.83.3l-.31-1.87a13.9,13.9,0,0,1,3.5-.46c3.21,0,4.15,1.09,4.15,3.54Zm-2.56-3.7h-1.88c-.84,0-1.07.22-1.07,1s.23,1,1,1a4.15,4.15,0,0,0,1.93-.5Zm7.91,3.9a12.59,12.59,0,0,1-3.52-.56l.36-1.87a11.94,11.94,0,0,0,3,.42c1.13,0,1.3-.24,1.3-1s-.13-.9-1.78-1.28c-2.5-.59-2.79-1.19-2.79-3.08S140.08,31,143,31a14,14,0,0,1,3.06.34l-.25,1.95A18.71,18.71,0,0,0,143,33c-1.11,0-1.3.24-1.3.85,0,.78.07.84,1.45,1.18,2.85.73,3.12,1.09,3.12,3.1S145.65,41.2,142.57,41.2Zm11.71-.2V34.16c0-.52-.23-.79-.82-.79a7.31,7.31,0,0,0-2.66.83V41h-2.56V27.23l2.56.38V32a9.19,9.19,0,0,1,3.73-.95c1.7,0,2.31,1.15,2.31,2.9V41ZM159,29.81V27.42h2.56v2.39ZM159,41V31.2h2.56V41Zm4.6-9.72c0-2.45,1.49-3.88,5-3.88a16.47,16.47,0,0,1,3.79.44L172.05,30a21.49,21.49,0,0,0-3.42-.34c-1.82,0-2.41.61-2.41,2v5.16c0,1.42.59,2,2.41,2a21.49,21.49,0,0,0,3.42-.34l.29,2.19a16.47,16.47,0,0,1-3.79.44c-3.48,0-5-1.43-5-3.88ZM178,41.2c-3.5,0-4.44-1.85-4.44-3.86V34.86c0-2,.94-3.86,4.44-3.86s4.44,1.85,4.44,3.86v2.48C182.43,39.35,181.49,41.2,178,41.2Zm0-8.11c-1.36,0-1.89.59-1.89,1.69v2.64c0,1.11.53,1.69,1.89,1.69s1.89-.58,1.89-1.69V34.78C179.88,33.68,179.35,33.09,178,33.09Zm11.64.16a21.79,21.79,0,0,0-2.7,1.43V41h-2.56V31.2h2.16l.17,1.09A11.74,11.74,0,0,1,189.38,31Zm10.22,4.49c0,2.17-1,3.46-3.37,3.46a14.65,14.65,0,0,1-2.72-.28v4l-2.56.38V31.2h2l.25.83a5.48,5.48,0,0,1,3.23-1c2,0,3.14,1.17,3.14,3.4Zm-6.09,1.11a11.85,11.85,0,0,0,2.26.26c.92,0,1.28-.42,1.28-1.31V34.34c0-.8-.32-1.25-1.26-1.25a3.63,3.63,0,0,0-2.28.89Z"/><path d="M144.41,50.87h7.93l-12,40.29H129.05L117,50.87h7.92l9.74,33.58Z"/><path d="M174.36,91.16h-6.05l-.55-2A16,16,0,0,1,159,91.77c-5.38,0-7.68-3.69-7.68-8.78,0-6,2.6-8.28,8.59-8.28H167V71.62c0-3.27-.91-4.42-5.63-4.42a41.65,41.65,0,0,0-8.17.91l-.9-5.62a38.26,38.26,0,0,1,10.1-1.4c9.26,0,12,3.27,12,10.65ZM167,80h-5.45c-2.42,0-3.08.66-3.08,2.9,0,2.06.66,3,3,3A11.69,11.69,0,0,0,167,84.39Z"/><path d="M188.45,83.24a3.15,3.15,0,0,0-1.75,2.36c0,.78.48,1.14,1.63,1.27,3.27.36,5.08.54,8.53.9,4.78.55,6.29,2.91,6.29,7.14,0,6.29-2.3,8.77-13.31,8.77a42.87,42.87,0,0,1-11.37-1.51l.91-5.5a41.15,41.15,0,0,0,9.92,1.27c5.87,0,7-.43,7-2.36s-.55-2.12-2.79-2.36c-3.38-.37-4.78-.55-8.53-1-4.17-.48-5.8-1.88-5.8-5.63a6.24,6.24,0,0,1,3.08-5c-2.72-1.63-4-4.35-4-7.92V70.9c.12-6.12,3.33-9.81,11.86-9.81a20.21,20.21,0,0,1,5,.61h9.07v3.69c-1,.3-2.24.6-3.27.91a10,10,0,0,1,1,4.6v2.78c0,6-3.63,9.62-11.85,9.62A15.54,15.54,0,0,1,188.45,83.24ZM190.15,67c-3.63,0-4.9,1.33-4.9,4.12v2.24c0,2.9,1.45,4,4.9,4s5-1.15,5-4V71.14C195.11,68.35,193.84,67,190.15,67Z"/><path d="M222.75,67.87a57.14,57.14,0,0,0-7.8,4.3v19h-7.38V61.7h6.23l.48,3.27A33.13,33.13,0,0,1,222,61.09Z"/><path d="M247.43,91.16h-6.05l-.54-2a16.07,16.07,0,0,1-8.77,2.61c-5.39,0-7.69-3.69-7.69-8.78,0-6,2.6-8.28,8.59-8.28h7.08V71.62c0-3.27-.91-4.42-5.62-4.42a41.48,41.48,0,0,0-8.17.91l-.91-5.62a38.32,38.32,0,0,1,10.1-1.4c9.26,0,12,3.27,12,10.65ZM240.05,80h-5.44c-2.42,0-3.09.66-3.09,2.9,0,2.06.67,3,3,3a11.68,11.68,0,0,0,5.56-1.51Z"/><path d="M269.39,91.16V70.59c0-1.57-.66-2.36-2.36-2.36s-5,1.09-7.68,2.48V91.16H252V61.7h5.62l.73,2.48a29.61,29.61,0,0,1,11.8-3.09c4.9,0,6.65,3.45,6.65,8.72V91.16Z"/><path d="M298.49,90.62A20.68,20.68,0,0,1,292,91.77c-5.38,0-8.1-2.55-8.1-7.81V67.57h-4.42V61.7h4.42V54.38l7.38-1V61.7h7.56l-.48,5.87h-7.08V83c0,1.58.72,2.61,2.66,2.61a14.34,14.34,0,0,0,3.69-.61Z"/><polygon class="cls-1" points="93.02 50.6 93.02 44.63 78.7 52.96 78.7 58 67.24 82.72 61.51 86.67 61.51 104.78 73.79 97.69 93.02 50.6"/><polygon class="cls-1" points="61.51 73.78 52.92 53.73 52.92 48.06 52.86 48.03 44.32 52.96 44.32 58 55.78 83.81 61.51 80.97 61.51 73.78"/><polygon class="cls-2" points="84.43 39.62 70.11 48 70.11 48 70.11 48.01 70.1 48.01 70.11 48.01 70.11 53.73 61.51 73.78 61.51 80.48 55.78 83.81 44.32 58 44.32 52.95 52.92 48.01 38.59 39.62 30 44.63 30 50.78 49.34 97.75 61.51 104.78 61.51 87.13 67.24 83.81 67.17 83.76 78.7 58 78.7 52.96 78.7 52.95 93.03 44.63 84.43 39.62"/></svg>